<?xml version="1.0" encoding="UTF-8" standalone="no"?>
<!-- Created with Inkscape (http://www.inkscape.org/) -->

<svg
   xmlns:dc="http://purl.org/dc/elements/1.1/"
   xmlns:cc="http://creativecommons.org/ns#"
   xmlns:rdf="http://www.w3.org/1999/02/22-rdf-syntax-ns#"
   xmlns:svg="http://www.w3.org/2000/svg"
   xmlns="http://www.w3.org/2000/svg"
   xmlns:sodipodi="http://sodipodi.sourceforge.net/DTD/sodipodi-0.dtd"
   xmlns:inkscape="http://www.inkscape.org/namespaces/inkscape"
   width="463.29697mm"
   height="137.0714mm"
   viewBox="0 0 1641.6034 485.68605"
   id="svg2"
   version="1.1"
   inkscape:version="0.91 r13725"
   sodipodi:docname="logo.svg"
   inkscape:export-filename="C:\Users\Tyler\Documents\GitHub\english-satire-project\cnn\logo.png"
   inkscape:export-xdpi="136.10001"
   inkscape:export-ydpi="136.10001">
  <defs
     id="defs4" />
  <sodipodi:namedview
     id="base"
     pagecolor="#ffffff"
     bordercolor="#666666"
     borderopacity="1.0"
     inkscape:pageopacity="0.0"
     inkscape:pageshadow="2"
     inkscape:zoom="0.49497475"
     inkscape:cx="917.93595"
     inkscape:cy="323.84891"
     inkscape:document-units="px"
     inkscape:current-layer="g4224"
     showgrid="false"
     inkscape:window-width="1920"
     inkscape:window-height="1028"
     inkscape:window-x="-8"
     inkscape:window-y="-8"
     inkscape:window-maximized="1"
     fit-margin-top="0"
     fit-margin-left="0"
     fit-margin-right="0"
     fit-margin-bottom="0" />
  <metadata
     id="metadata7">
    <rdf:RDF>
      <cc:Work
         rdf:about="">
        <dc:format>image/svg+xml</dc:format>
        <dc:type
           rdf:resource="http://purl.org/dc/dcmitype/StillImage" />
        <dc:title></dc:title>
      </cc:Work>
    </rdf:RDF>
  </metadata>
  <g
     inkscape:label="Layer 1"
     inkscape:groupmode="layer"
     id="layer1"
     transform="translate(-109.50172,-548.52026)">
    <g
       id="g4224"
       transform="translate(-140.91628,-15.404826)">
      <g
         id="g4259"
         transform="matrix(-1.5727454,1.3376196,-1.3376196,-1.5727454,2103.314,1782.7241)">
        <path
           id="path4236"
           transform="translate(140.91628,15.404826)"
           d="m 29.625,834.79102 c -1.097112,-0.0156 -2.255482,0.0101 -3.484375,0.0781 -4.30291,0.23824 -8.761475,1.16768 -11.140625,2.32227 -2.18176,1.0588 -5.6510644,3.61005 -7.7089844,5.66797 -2.05792,2.05792 -4.7658112,5.67288 -6.0195312,8.0332 -1.85653003,3.49519 -2.2812031,5.86821 -2.2832032,12.79101 -0.00173,6.57261 0.4824388,9.55348 2.1367188,13.14844 1.17667,2.55704 3.8872375,6.397 6.0234375,8.5332 2.1362,2.1362 5.6698025,4.7346 7.8515625,5.77344 2.18176,1.03885 5.316797,2.21416 6.966797,2.61328 1.65,0.39912 24.686366,0.77183 51.191406,0.82813 29.019217,0.0616 48.420697,-0.26956 48.769527,-0.83399 0.31861,-0.51552 -17.3158,-13.33049 -39.189449,-28.47656 C 58.442861,848.44653 41.088555,837.09721 38.140625,836.10154 35.660893,835.26402 32.916336,834.83767 29.625,834.791 Z"
           style="fill:#fbb61d"
           inkscape:connector-curvature="0" />
        <path
           id="path4234"
           transform="translate(140.91628,15.404826)"
           d="m 51.466797,773.18359 c -7.65812,0 -9.04474,0.30655 -14,3.10157 -3.025,1.70625 -6.951209,4.9894 -8.724609,7.29492 -1.773411,2.30551 -3.910911,6.50257 -4.75,9.32812 -0.839101,2.82556 -1.525391,6.77504 -1.525391,8.77539 0,2.00035 0.687694,5.94996 1.527344,8.77735 1.03043,3.46983 3.06184,6.77177 6.25,10.16015 2.95932,3.14518 19.848326,15.29769 45.222656,32.53711 22.275,15.13372 40.837503,27.51653 41.250003,27.51953 0.4125,0.003 0.75,-0.26919 0.75,-0.60546 0,-0.33627 -9.30111,-21.74921 -20.669925,-47.58399 -17.60136,-39.99774 -21.27631,-47.59527 -24.75,-51.16211 -2.24368,-2.30384 -5.880078,-5.07841 -8.080078,-6.16601 -3.03647,-1.50111 -6.04751,-1.97657 -12.5,-1.97657 z"
           style="fill:#f26e20"
           inkscape:connector-curvature="0" />
        <path
           id="path4232"
           transform="translate(140.91628,15.404826)"
           d="m 171.81836,734.37305 c -5.78209,-0.0181 -8.21382,0.49708 -12.71484,2.69922 -3.07316,1.50356 -7.34822,4.74828 -9.54688,7.24609 -2.18988,2.48783 -4.71005,6.71438 -5.59961,9.39258 -0.88956,2.67821 -1.4751,6.58129 -1.30273,8.67187 l 0.3125,3.80078 5.25,0.30274 c 3.65177,0.21024 5.25,0.7215 5.25,1.68164 0,0.7592 -0.82879,1.64332 -1.8418,1.96484 -1.01301,0.32152 -2.86454,1.67456 -4.11523,3.00586 -1.37347,1.46199 -2.46115,4.12784 -2.7461,6.73242 -0.27846,2.54513 2.03346,21.11401 5.64258,45.3125 3.36325,22.55 6.33701,42.0125 6.60742,43.25 0.27042,1.2375 0.86042,2.25 1.3125,2.25 0.45208,0 8.40577,-17.8875 17.67383,-39.75 9.26807,-21.8625 18.78606,-44.475 21.15039,-50.25 3.5597,-8.69474 4.29864,-11.63262 4.30664,-17.08984 0.007,-5.36922 -0.56073,-7.73178 -3.06641,-12.74609 -1.84954,-3.70129 -4.76935,-7.54355 -7.32617,-9.63868 -2.33837,-1.91612 -6.01623,-4.23244 -8.17383,-5.14843 -2.40694,-1.02186 -6.68577,-1.6737 -11.07226,-1.6875 z"
           style="fill:#6460aa"
           inkscape:connector-curvature="0" />
        <path
           id="path4230"
           transform="translate(140.91628,15.404826)"
           d="m 225.97461,772.14648 c -1.71969,0.0161 -3.44178,0.21218 -5.24219,0.58594 -2.88552,0.59903 -7.3661,2.51988 -9.95898,4.26953 -2.59287,1.74964 -6.13437,5.20664 -7.86914,7.68164 -1.73477,2.475 -11.82819,24.525 -22.42969,49 -10.60149,24.475 -19.51298,45.3627 -19.80273,46.41797 -0.37516,1.36586 -0.11986,1.75944 0.88476,1.36719 0.77591,-0.30295 19.63516,-13.01418 41.91016,-28.24805 22.275,-15.23387 41.98201,-29.11889 43.79297,-30.85547 1.81096,-1.73659 4.46406,-5.5527 5.89648,-8.48046 2.01854,-4.12575 2.60547,-6.83257 2.60547,-12.03516 0,-4.57666 -0.64812,-8.17685 -2.03516,-11.3125 -1.11891,-2.52948 -3.74117,-6.48882 -5.82812,-8.79883 -2.08696,-2.31 -5.5213,-5.08003 -7.63086,-6.15625 -2.10956,-1.07621 -6.1861,-2.40409 -9.06055,-2.94922 -1.79351,-0.34013 -3.51273,-0.50242 -5.23242,-0.48633 z"
           style="fill:#0c8ecd"
           inkscape:connector-curvature="0" />
        <path
           id="path4228"
           transform="translate(140.91628,15.404826)"
           d="m 106.33203,734.83789 c -2.77027,-0.006 -5.72451,0.26064 -7.380858,0.70899 -2.20845,0.59778 -6.127554,2.42735 -8.708984,4.06445 -2.58143,1.63709 -6.072746,4.88012 -7.759766,7.20898 -1.68702,2.32887 -3.792715,6.72516 -4.677734,9.76953 -1.32357,4.5529 -1.412773,6.58693 -0.507813,11.45313 0.64901,3.48984 8.566821,23.39086 19.306641,48.52734 10.013644,23.43685 19.247744,44.97578 20.521484,47.86328 1.27374,2.8875 2.69432,5.25 3.15625,5.25 0.46193,0 4.1248,-23.01621 8.13867,-51.14648 5.27276,-36.95294 7.1604,-52.84786 6.80469,-57.2793 -0.27757,-3.45782 -1.46993,-8.08316 -2.73438,-10.60351 -1.23358,-2.45882 -3.43082,-5.75067 -4.88281,-7.31446 -1.45199,-1.56378 -4.88181,-3.98559 -7.62109,-5.38281 -3.03584,-1.54849 -7.33087,-2.72825 -11,-3.01953 -0.82768,-0.0657 -1.73088,-0.0977 -2.6543,-0.0996 z"
           style="fill:#c72249"
           inkscape:connector-curvature="0" />
        <path
           id="path4226"
           transform="translate(140.91628,15.404826)"
           d="m 249.9668,835.23633 c -4.98678,0 -8.29421,0.59977 -11.5,2.08398 -2.475,1.14587 -20.25,12.99955 -39.5,26.3418 -19.25,13.34225 -36.50827,25.38752 -38.35157,26.76758 -2.57653,1.92901 -3.03897,2.71551 -2,3.40039 0.75825,0.49983 22.64035,0.77404 49.85157,0.62304 46.90548,-0.26029 48.64959,-0.33857 53.05078,-2.375 2.50294,-1.1581 6.19664,-3.55149 8.20898,-5.31835 2.01235,-1.76686 4.8911,-5.76951 6.39649,-8.89454 2.22076,-4.61003 2.74272,-7.09646 2.76562,-13.18164 0.0223,-5.91881 -0.47682,-8.53878 -2.36914,-12.42382 -1.31881,-2.7076 -4.16581,-6.68925 -6.32617,-8.84961 -2.16035,-2.16035 -6.02109,-4.88363 -8.57813,-6.05078 -3.32552,-1.51793 -6.64138,-2.12305 -11.64843,-2.12305 z"
           style="fill:#23b14d"
           inkscape:connector-curvature="0" />
      </g>
      <text
         xml:space="preserve"
         style="font-style:normal;font-weight:normal;font-size:196.91786194px;line-height:125%;font-family:sans-serif;letter-spacing:0px;word-spacing:0px;fill:#000000;fill-opacity:1;stroke:none;stroke-width:1px;stroke-linecap:butt;stroke-linejoin:miter;stroke-opacity:1"
         x="685.91357"
         y="1076.1147"
         id="text4267"
         sodipodi:linespacing="125%"
         transform="scale(1.042808,0.95894929)"><tspan
           sodipodi:role="line"
           id="tspan4269"
           x="685.91357"
           y="1076.1147"
           style="font-style:normal;font-variant:normal;font-weight:bold;font-stretch:normal;font-size:393.83572388px;font-family:Aharoni;-inkscape-font-specification:'Aharoni Bold';letter-spacing:-35.69136047px;word-spacing:0px"
           dx="0 0 0.23 13.42 -23.950024">MSCAT</tspan></text>
    </g>
  </g>
</svg>
