<?xml version="1.0" encoding="UTF-8" standalone="no"?>
<!-- Created with Inkscape (http://www.inkscape.org/) -->

<svg
   xmlns:dc="http://purl.org/dc/elements/1.1/"
   xmlns:cc="http://creativecommons.org/ns#"
   xmlns:rdf="http://www.w3.org/1999/02/22-rdf-syntax-ns#"
   xmlns:svg="http://www.w3.org/2000/svg"
   xmlns="http://www.w3.org/2000/svg"
   xmlns:sodipodi="http://sodipodi.sourceforge.net/DTD/sodipodi-0.dtd"
   xmlns:inkscape="http://www.inkscape.org/namespaces/inkscape"
   width="210mm"
   height="297mm"
   viewBox="0 0 744.09448819 1052.3622047"
   id="svg2"
   version="1.1"
   inkscape:version="0.91 r13725"
   sodipodi:docname="quote.svg">
  <defs
     id="defs4" />
  <sodipodi:namedview
     id="base"
     pagecolor="#ffffff"
     bordercolor="#666666"
     borderopacity="1.0"
     inkscape:pageopacity="0.0"
     inkscape:pageshadow="2"
     inkscape:zoom="1.979899"
     inkscape:cx="96.128988"
     inkscape:cy="160.60361"
     inkscape:document-units="px"
     inkscape:current-layer="layer1"
     showgrid="false"
     inkscape:window-width="1920"
     inkscape:window-height="1028"
     inkscape:window-x="-8"
     inkscape:window-y="-8"
     inkscape:window-maximized="1" />
  <metadata
     id="metadata7">
    <rdf:RDF>
      <cc:Work
         rdf:about="">
        <dc:format>image/svg+xml</dc:format>
        <dc:type
           rdf:resource="http://purl.org/dc/dcmitype/StillImage" />
        <dc:title></dc:title>
      </cc:Work>
    </rdf:RDF>
  </metadata>
  <g
     inkscape:label="Layer 1"
     inkscape:groupmode="layer"
     id="layer1">
    <path
       style="fill:#000000;opacity:0.5"
       d="m 31.030986,1050.7891 c -15.34791,-5.3757 -26.1854198,-19.1176 -30.25408984,-38.3622 -1.68518004,-7.9708 -0.53241,-22.83266 2.52545004,-32.55883 5.27143,-16.7669 19.9173698,-35.76508 37.8741298,-49.12896 l 9.849368,-7.33014 6.48767,0 c 3.56821,0 6.26283,0.36379 5.98803,0.80843 -0.2748,0.44464 -4.33975,3.41678 -9.03323,6.60476 -15.765998,10.70887 -23.372968,20.56375 -26.595938,34.45523 -1.77261,7.64025 -0.78356,16.65415 2.17444,19.81705 3.65841,3.91184 5.42952,4.48656 16.575308,5.37866 13.89485,1.11214 19.49644,3.07605 25.28546,8.86507 5.6229,5.62293 7.97556,11.85393 7.97556,21.12323 0,19.6837 -14.01526,32.0278 -36.21845,31.8998 -4.725338,-0.027 -10.150418,-0.7023 -12.633708,-1.5721 z M 133.351,1051.066 c -13.95726,-4.5603 -25.72276,-17.9769 -29.9185,-34.1171 -2.25826,-8.6872 -2.03525,-24.32674 0.47612,-33.38932 5.29803,-19.11859 18.6547,-37.46399 37.94113,-52.11218 10.0091,-7.60199 10.96414,-8.03843 17.59009,-8.03843 5.12793,0 5.55588,0.15942 4.34493,1.61853 -0.7388,0.8902 -4.7314,3.88841 -8.87245,6.6627 -15.22369,10.1991 -23.96894,22.39944 -26.07595,36.37812 -1.09977,7.29623 -0.17779,14.10934 2.32171,17.15659 2.40412,2.93096 7.62193,4.55185 17.03205,5.29093 17.38601,1.36552 25.38569,5.4944 30.39005,15.68516 2.46839,5.0266 2.79364,6.7822 2.72484,14.708 -0.0538,6.204 -0.61045,10.1859 -1.79162,12.8175 -2.74058,6.1057 -9.01318,12.1288 -15.88278,15.2511 -5.30003,2.4089 -7.76402,2.8825 -16.24748,3.1227 -6.31734,0.1789 -11.4849,-0.202 -14.03214,-1.0343 z"
       id="path4147"
       inkscape:connector-curvature="0"
       inkscape:export-xdpi="136.10001"
       inkscape:export-ydpi="136.10001" />
  </g>
</svg>
